<?xml version="1.0" encoding="UTF-8"?>
<svg width="96px" height="96px" viewBox="0 0 96 96" version="1.1" xmlns="http://www.w3.org/2000/svg" xmlns:xlink="http://www.w3.org/1999/xlink">
    <title>Icon/AC-2</title>
    <defs>
        <polygon id="path-1" points="0 0 71.4455 0 71.4455 31.6649 0 31.6649"></polygon>
        <polygon id="path-3" points="-3.55271368e-15 0 40.338 0 40.338 40.3378 -3.55271368e-15 40.3378"></polygon>
    </defs>
    <g id="Icon/AC-2" stroke="none" stroke-width="1" fill="none" fill-rule="evenodd">
        <g id="Group-13" transform="translate(12.000000, 12.000000)">
            <g id="Group-3" transform="translate(0.000000, 40.213100)">
                <mask id="mask-2" fill="white">
                    <use xlink:href="#path-1"></use>
                </mask>
                <g id="Clip-2"></g>
                <path d="M66.779,8.867 L48.921,26.684 L25.048,26.679 L14.806,23.157 L14.806,13.565 C14.806,8.932 18.576,5.163 23.209,5.163 C26.199,5.163 28.989,6.772 30.488,9.364 L31.037,10.313 L45.272,10.313 C46.821,10.313 48.081,11.573 48.081,13.122 C48.081,14.671 46.821,15.93 45.272,15.93 L31.443,15.93 C30.393,15.93 29.543,16.781 29.543,17.831 C29.543,18.881 30.393,19.731 31.443,19.731 L45.272,19.731 C48.432,19.731 51.078,17.501 51.726,14.533 L62.582,4.669 C63.703,3.548 65.658,3.549 66.779,4.67 C67.936,5.827 67.936,7.71 66.779,8.867 M10.906,27.864 L3.9,27.864 C3.845,27.864 3.8,27.819 3.8,27.764 L3.8,14.088 L11.006,14.088 L11.006,27.764 C11.006,27.819 10.961,27.864 10.906,27.864 M3.9,4.472 L10.906,4.472 C10.961,4.472 11.006,4.517 11.006,4.572 L11.006,10.287 L3.8,10.287 L3.8,4.572 C3.8,4.517 3.845,4.472 3.9,4.472 M69.467,1.982 C68.188,0.704 66.488,0 64.68,0 C62.872,0 61.173,0.704 59.961,1.92 L51.086,9.981 C49.967,7.917 47.781,6.513 45.272,6.513 L33.168,6.513 C30.894,3.31 27.174,1.362 23.209,1.362 C19.952,1.362 16.997,2.652 14.806,4.738 L14.806,4.572 C14.806,2.422 13.056,0.672 10.906,0.672 L3.9,0.672 C1.75,0.672 0,2.422 0,4.572 L0,27.764 C0,29.915 1.75,31.665 3.9,31.665 L10.906,31.665 C13.056,31.665 14.806,29.915 14.806,27.764 L14.806,27.176 L23.808,30.271 C24.218,30.413 24.646,30.485 25.08,30.485 L48.921,30.485 C49.963,30.485 50.941,30.079 51.678,29.343 L69.467,11.555 C72.105,8.915 72.105,4.622 69.467,1.982" id="Fill-1" fill="#000000" mask="url(#mask-2)"></path>
            </g>
            <g id="Group-6" transform="translate(22.848300, 0.000000)">
                <mask id="mask-4" fill="white">
                    <use xlink:href="#path-3"></use>
                </mask>
                <g id="Clip-5"></g>
                <path d="M20.169,36.4688 C11.181,36.4688 3.869,29.1568 3.869,20.1688 C3.869,11.1818 11.181,3.8688 20.169,3.8688 C29.157,3.8688 36.469,11.1818 36.469,20.1688 C36.469,29.1568 29.157,36.4688 20.169,36.4688 M20.169,-0.0002 C9.048,-0.0002 -3.55271368e-15,9.0478 -3.55271368e-15,20.1688 C-3.55271368e-15,31.2898 9.048,40.3378 20.169,40.3378 C31.29,40.3378 40.338,31.2898 40.338,20.1688 C40.338,9.0478 31.29,-0.0002 20.169,-0.0002" id="Fill-4" fill="#000000" mask="url(#mask-4)"></path>
            </g>
            <path d="M36.1931,17.8038 C35.6731,17.8038 34.8011,17.4678 34.8011,15.2218 C34.8011,12.9748 35.6731,12.6388 36.1931,12.6388 C36.7141,12.6388 37.5861,12.9748 37.5861,15.2218 C37.5861,17.4678 36.7141,17.8038 36.1931,17.8038 M36.1931,9.9998 C33.1721,9.9998 31.2211,12.0498 31.2211,15.2218 C31.2211,18.3928 33.1721,20.4428 36.1931,20.4428 C39.2141,20.4428 41.1661,18.3928 41.1661,15.2218 C41.1661,12.0498 39.2141,9.9998 36.1931,9.9998" id="Fill-7" fill="#FFCD00"></path>
            <path d="M50.3893,26.9356 C49.8683,26.9356 48.9963,26.5996 48.9963,24.3526 C48.9963,22.1066 49.8683,21.7706 50.3893,21.7706 C50.9093,21.7706 51.7813,22.1066 51.7813,24.3526 C51.7813,26.5996 50.9093,26.9356 50.3893,26.9356 M50.3893,19.1316 C47.3683,19.1316 45.4163,21.1816 45.4163,24.3526 C45.4163,27.5246 47.3683,29.5746 50.3893,29.5746 C53.4103,29.5746 55.3613,27.5246 55.3613,24.3526 C55.3613,21.1816 53.4103,19.1316 50.3893,19.1316" id="Fill-9" fill="#FFCD00"></path>
            <path d="M47.1364,11.043 L36.5454,26.552 C35.7494,27.717 36.5844,29.298 37.9954,29.298 C38.5764,29.298 39.1184,29.011 39.4464,28.532 L50.0364,13.023 C50.8324,11.857 49.9974,10.276 48.5864,10.276 C48.0054,10.276 47.4634,10.564 47.1364,11.043" id="Fill-11" fill="#FFCD00"></path>
        </g>
    </g>
</svg>