<?xml version="1.0" encoding="UTF-8"?>
<svg width="96px" height="96px" viewBox="0 0 96 96" version="1.1" xmlns="http://www.w3.org/2000/svg" xmlns:xlink="http://www.w3.org/1999/xlink">
    <title>Icon/Time</title>
    <defs>
        <polygon id="path-1" points="0 0 3.7618 0 3.7618 3.762 0 3.762"></polygon>
        <polygon id="path-3" points="0 0 68.2989 0 68.2989 70.533 0 70.533"></polygon>
    </defs>
    <g id="Icon/Time" stroke="none" stroke-width="1" fill="none" fill-rule="evenodd">
        <g id="Group-15" transform="translate(13.000000, 13.000000)">
            <path d="M35.3369,37.8103 L16.8109,37.8103 C15.7609,37.8103 14.9099,36.9593 14.9099,35.9103 C14.9099,34.8603 15.7609,34.0093 16.8109,34.0093 L33.4369,34.0093 L33.4369,12.9543 C33.4369,11.9043 34.2869,11.0533 35.3369,11.0533 C36.3869,11.0533 37.2369,11.9043 37.2369,12.9543 L37.2369,35.9103 C37.2369,36.9593 36.3869,37.8103 35.3369,37.8103" id="Fill-1" fill="#FFCD00"></path>
            <path d="M45.9238,66.0164 C45.9238,67.0554 46.7668,67.8974 47.8048,67.8974 C48.8438,67.8974 49.6858,67.0554 49.6858,66.0164 C49.6858,64.9774 48.8438,64.1354 47.8048,64.1354 C46.7668,64.1354 45.9238,64.9774 45.9238,66.0164" id="Fill-3" fill="#000000"></path>
            <path d="M55.3408,60.2098 C55.3408,61.2488 56.1838,62.0908 57.2218,62.0908 C58.2608,62.0908 59.1028,61.2488 59.1028,60.2098 C59.1028,59.1718 58.2608,58.3288 57.2218,58.3288 C56.1838,58.3288 55.3408,59.1718 55.3408,60.2098" id="Fill-5" fill="#000000"></path>
            <path d="M62.2656,51.576 C62.2656,52.615 63.1086,53.457 64.1466,53.457 C65.1856,53.457 66.0276,52.615 66.0276,51.576 C66.0276,50.537 65.1856,49.695 64.1466,49.695 C63.1086,49.695 62.2656,50.537 62.2656,51.576" id="Fill-7" fill="#000000"></path>
            <g id="Group-11" transform="translate(65.910200, 39.178400)">
                <mask id="mask-2" fill="white">
                    <use xlink:href="#path-1"></use>
                </mask>
                <g id="Clip-10"></g>
                <path d="M0,1.881 C0,2.92 0.842,3.762 1.881,3.762 C2.92,3.762 3.762,2.92 3.762,1.881 C3.762,0.843 2.92,0 1.881,0 C0.842,0 0,0.843 0,1.881" id="Fill-9" fill="#000000" mask="url(#mask-2)"></path>
            </g>
            <g id="Group-14">
                <mask id="mask-4" fill="white">
                    <use xlink:href="#path-3"></use>
                </mask>
                <g id="Clip-13"></g>
                <path d="M68.0049,24.243 C68.0399,24.186 68.0709,24.127 68.1009,24.065 C68.1219,24.022 68.1449,23.979 68.1629,23.933 C68.1909,23.864 68.2099,23.792 68.2299,23.719 C68.2399,23.678 68.2549,23.639 68.2629,23.597 C68.2849,23.479 68.2989,23.359 68.2989,23.236 L68.2989,5.735 C68.2989,4.685 67.4479,3.835 66.3989,3.835 C65.3489,3.835 64.4979,4.685 64.4979,5.735 L64.4979,15.552 C58.0219,6.021 47.0569,0 35.2669,0 C15.8199,0 -0.0001,15.82 -0.0001,35.266 C-0.0001,54.713 15.8199,70.533 35.2669,70.533 C36.7729,70.533 38.2879,70.437 39.7739,70.248 C40.8149,70.115 41.5519,69.164 41.4189,68.124 C41.2869,67.084 40.3439,66.341 39.2949,66.478 C37.9679,66.647 36.6119,66.732 35.2669,66.732 C17.9159,66.732 3.8009,52.617 3.8009,35.266 C3.8009,17.916 17.9159,3.801 35.2669,3.801 C47.2239,3.801 58.2169,10.747 63.4729,21.336 L49.2259,21.336 C48.1759,21.336 47.3249,22.186 47.3249,23.236 C47.3249,24.286 48.1759,25.137 49.2259,25.137 L66.3989,25.137 C66.4009,25.137 66.4039,25.136 66.4069,25.136 C66.5199,25.136 66.6329,25.125 66.7469,25.104 C66.7529,25.103 66.7579,25.1 66.7629,25.099 C66.8069,25.092 66.8469,25.076 66.8899,25.064 C66.9629,25.045 67.0349,25.025 67.1049,24.998 C67.1499,24.979 67.1909,24.957 67.2339,24.935 C67.2959,24.904 67.3589,24.874 67.4159,24.837 C67.4569,24.81 67.4949,24.781 67.5339,24.752 C67.5879,24.711 67.6409,24.67 67.6899,24.624 C67.7259,24.59 67.7599,24.555 67.7929,24.518 C67.8379,24.47 67.8799,24.419 67.9199,24.365 C67.9489,24.325 67.9779,24.285 68.0049,24.243" id="Fill-12" fill="#000000" mask="url(#mask-4)"></path>
            </g>
        </g>
    </g>
</svg>