<?xml version="1.0" encoding="UTF-8"?>
<svg width="96px" height="96px" viewBox="0 0 96 96" version="1.1" xmlns="http://www.w3.org/2000/svg" xmlns:xlink="http://www.w3.org/1999/xlink">
    <title>Icon/Truck</title>
    <defs>
        <polygon id="path-1" points="0 0 27.263 0 27.263 3.8009 0 3.8009"></polygon>
    </defs>
    <g id="Icon/Truck" stroke="none" stroke-width="1" fill="none" fill-rule="evenodd">
        <g id="Group-10" transform="translate(13.000000, 19.000000)">
            <path d="M66.77,48.2345 L59.374,48.2345 C58.533,44.9565 55.561,42.5215 52.024,42.5215 C50.447,42.5215 48.982,43.0055 47.766,43.8315 L47.766,34.0045 L66.87,34.0045 L66.87,48.1345 C66.87,48.1895 66.825,48.2345 66.77,48.2345 L66.77,48.2345 Z M52.024,53.9135 C49.93,53.9135 48.228,52.2115 48.228,50.1185 C48.228,48.0245 49.93,46.3225 52.024,46.3225 C54.117,46.3225 55.819,48.0245 55.819,50.1185 C55.819,52.2115 54.117,53.9135 52.024,53.9135 L52.024,53.9135 Z M53.636,17.8635 C54.599,17.8635 55.491,18.2985 56.082,19.0585 L64.736,30.2035 L47.766,30.2035 L47.766,17.8635 L53.636,17.8635 Z M18.067,53.9135 C15.974,53.9135 14.271,52.2115 14.271,50.1185 C14.271,48.0245 15.974,46.3225 18.067,46.3225 C20.16,46.3225 21.862,48.0245 21.862,50.1185 C21.862,52.2115 20.16,53.9135 18.067,53.9135 L18.067,53.9135 Z M69.847,30.5555 L59.082,16.7245 C57.765,15.0335 55.781,14.0625 53.636,14.0625 L47.766,14.0625 L47.766,3.9005 C47.766,1.7505 46.016,0.0005 43.866,0.0005 L35.816,0.0005 C34.767,0.0005 33.916,0.8505 33.916,1.9005 C33.916,2.9505 34.767,3.8005 35.816,3.8005 L43.866,3.8005 C43.92,3.8005 43.965,3.8455 43.965,3.9005 L43.965,48.2345 L25.416,48.2345 C24.575,44.9565 21.603,42.5215 18.067,42.5215 C14.53,42.5215 11.559,44.9565 10.717,48.2345 L3.9,48.2345 C3.845,48.2345 3.8,48.1895 3.8,48.1345 L3.8,33.6345 C3.8,32.5855 2.949,31.7345 1.9,31.7345 C0.851,31.7345 0,32.5855 0,33.6345 L0,48.1345 C0,50.2855 1.749,52.0355 3.9,52.0355 L10.726,52.0355 C11.579,55.2965 14.541,57.7135 18.067,57.7135 C21.592,57.7135 24.555,55.2965 25.408,52.0355 L44.682,52.0355 C45.535,55.2965 48.499,57.7135 52.024,57.7135 C55.549,57.7135 58.512,55.2965 59.365,52.0355 L66.77,52.0355 C68.92,52.0355 70.67,50.2855 70.67,48.1345 L70.67,32.9515 C70.67,32.0875 70.377,31.2355 69.847,30.5555 L69.847,30.5555 Z" id="Fill-1" fill="#000000"></path>
            <g id="Group-5" transform="translate(0.000300, 0.000000)">
                <mask id="mask-2" fill="white">
                    <use xlink:href="#path-1"></use>
                </mask>
                <g id="Clip-4"></g>
                <path d="M25.363,3.8009 L1.9,3.8009 C0.85,3.8009 0,2.9499 0,1.9009 C0,0.8509 0.85,-0.0001 1.9,-0.0001 L25.363,-0.0001 C26.412,-0.0001 27.263,0.8509 27.263,1.9009 C27.263,2.9499 26.412,3.8009 25.363,3.8009" id="Fill-3" fill="#FFCD00" mask="url(#mask-2)"></path>
            </g>
            <path d="M22.3633,15.0509 L1.9003,15.0509 C0.8503,15.0509 0.0003,14.1999 0.0003,13.1509 C0.0003,12.1009 0.8503,11.2499 1.9003,11.2499 L22.3633,11.2499 C23.4123,11.2499 24.2633,12.1009 24.2633,13.1509 C24.2633,14.1999 23.4123,15.0509 22.3633,15.0509" id="Fill-6" fill="#FFCD00"></path>
            <path d="M18.3633,26.3009 L1.9003,26.3009 C0.8503,26.3009 0.0003,25.4499 0.0003,24.4009 C0.0003,23.3509 0.8503,22.4999 1.9003,22.4999 L18.3633,22.4999 C19.4123,22.4999 20.2633,23.3509 20.2633,24.4009 C20.2633,25.4499 19.4123,26.3009 18.3633,26.3009" id="Fill-8" fill="#FFCD00"></path>
        </g>
    </g>
</svg>